<mxfile host="Electron" agent="Mozilla/5.0 (Macintosh; Intel Mac OS X 10_15_7) AppleWebKit/537.36 (KHTML, like Gecko) draw.io/28.1.2 Chrome/138.0.7204.243 Electron/37.4.0 Safari/537.36" version="28.1.2">
  <diagram name="Page-1" id="BHAaD5WEhAUW0B4swmhn">
    <mxGraphModel dx="1963" dy="813" grid="1" gridSize="10" guides="1" tooltips="1" connect="1" arrows="1" fold="1" page="1" pageScale="1" pageWidth="850" pageHeight="1100" math="1" shadow="0">
      <root>
        <mxCell id="0" />
        <mxCell id="1" parent="0" />
        <mxCell id="WWbijRxvFpkm4Z4hjYA9-12" value="" style="endArrow=classic;html=1;rounded=0;strokeWidth=5;fillColor=#60a917;strokeColor=#FF0000;" parent="1" edge="1">
          <mxGeometry width="50" height="50" relative="1" as="geometry">
            <mxPoint x="465" y="440" as="sourcePoint" />
            <mxPoint x="695" y="270" as="targetPoint" />
          </mxGeometry>
        </mxCell>
        <mxCell id="WWbijRxvFpkm4Z4hjYA9-4" value="" style="curved=1;endArrow=classic;html=1;rounded=0;strokeWidth=5;strokeColor=#000000;dashed=1;" parent="1" edge="1">
          <mxGeometry width="50" height="50" relative="1" as="geometry">
            <mxPoint x="135" y="620" as="sourcePoint" />
            <mxPoint x="375" y="150" as="targetPoint" />
            <Array as="points">
              <mxPoint x="525" y="440" />
              <mxPoint x="655" y="190" />
            </Array>
          </mxGeometry>
        </mxCell>
        <mxCell id="WWbijRxvFpkm4Z4hjYA9-2" value="" style="verticalLabelPosition=bottom;verticalAlign=top;html=1;shape=mxgraph.basic.polygon;polyCoords=[[0.29,0.03],[0.6,0.11],[0.97,0.3],[1,0.57],[0.89,0.97],[0.13,0.8],[0,0.41],[0,0.41]];polyline=0;fillColor=light-dark(#B3B3B3,#EDEDED);strokeWidth=4;rotation=-10;gradientColor=none;fillStyle=solid;connectable=0;resizable=1;container=0;strokeColor=light-dark(#000000,#EDEDED);shadow=0;opacity=50;" parent="1" vertex="1">
          <mxGeometry x="350.15" y="220" width="304.85" height="350.24" as="geometry" />
        </mxCell>
        <mxCell id="wcHSf-dP6BTbZXNanSjt-1" value="&lt;font style=&quot;font-size: 30px; color: rgb(255, 0, 0);&quot;&gt;$$ \vec{t} $$&lt;/font&gt;" style="text;html=1;align=center;verticalAlign=middle;whiteSpace=wrap;rounded=0;strokeWidth=20;" parent="1" vertex="1">
          <mxGeometry x="655" y="230" width="60" height="30" as="geometry" />
        </mxCell>
        <mxCell id="WWbijRxvFpkm4Z4hjYA9-5" value="" style="ellipse;whiteSpace=wrap;html=1;aspect=fixed;strokeColor=#FF0000;strokeWidth=5;fillColor=#FF0000;" parent="1" vertex="1">
          <mxGeometry x="445" y="310" width="20" height="20" as="geometry" />
        </mxCell>
        <mxCell id="WWbijRxvFpkm4Z4hjYA9-7" value="" style="endArrow=classic;html=1;rounded=0;strokeWidth=5;fillColor=#60a917;strokeColor=#2D7600;" parent="1" edge="1">
          <mxGeometry width="50" height="50" relative="1" as="geometry">
            <mxPoint x="465.15" y="441.76" as="sourcePoint" />
            <mxPoint x="290" y="320" as="targetPoint" />
          </mxGeometry>
        </mxCell>
        <mxCell id="WWbijRxvFpkm4Z4hjYA9-8" value="" style="endArrow=classic;html=1;rounded=0;strokeWidth=5;fillColor=#0050ef;strokeColor=#001DBC;" parent="1" edge="1">
          <mxGeometry width="50" height="50" relative="1" as="geometry">
            <mxPoint x="465.15" y="439.76" as="sourcePoint" />
            <mxPoint x="560" y="310" as="targetPoint" />
          </mxGeometry>
        </mxCell>
        <mxCell id="WWbijRxvFpkm4Z4hjYA9-15" value="" style="endArrow=none;html=1;rounded=0;strokeWidth=5;fillColor=#60a917;strokeColor=#2D7600;dashed=1;endFill=0;" parent="1" edge="1">
          <mxGeometry width="50" height="50" relative="1" as="geometry">
            <mxPoint x="518.15" y="367.76" as="sourcePoint" />
            <mxPoint x="455" y="320" as="targetPoint" />
          </mxGeometry>
        </mxCell>
        <mxCell id="WWbijRxvFpkm4Z4hjYA9-16" value="" style="endArrow=none;html=1;rounded=0;strokeWidth=5;fillColor=#0050ef;strokeColor=#001DBC;endFill=0;dashed=1;" parent="1" edge="1">
          <mxGeometry width="50" height="50" relative="1" as="geometry">
            <mxPoint x="400" y="396" as="sourcePoint" />
            <mxPoint x="455" y="320" as="targetPoint" />
          </mxGeometry>
        </mxCell>
        <mxCell id="WWbijRxvFpkm4Z4hjYA9-20" value="&lt;font style=&quot;font-size: 30px;&quot;&gt;$$ P_B $$&lt;/font&gt;" style="text;html=1;align=center;verticalAlign=middle;whiteSpace=wrap;rounded=0;strokeWidth=20;" parent="1" vertex="1">
          <mxGeometry x="395" y="275" width="60" height="30" as="geometry" />
        </mxCell>
        <mxCell id="WWbijRxvFpkm4Z4hjYA9-21" value="&lt;font style=&quot;font-size: 30px;&quot;&gt;$$ e_{n1} $$&lt;/font&gt;" style="text;html=1;align=center;verticalAlign=middle;whiteSpace=wrap;rounded=0;strokeWidth=20;" parent="1" vertex="1">
          <mxGeometry x="475" y="305" width="60" height="30" as="geometry" />
        </mxCell>
        <mxCell id="WWbijRxvFpkm4Z4hjYA9-22" value="&lt;font style=&quot;font-size: 30px;&quot;&gt;$$ e_{b2} $$&lt;/font&gt;" style="text;html=1;align=center;verticalAlign=middle;whiteSpace=wrap;rounded=0;strokeWidth=20;" parent="1" vertex="1">
          <mxGeometry x="365" y="330" width="60" height="30" as="geometry" />
        </mxCell>
        <mxCell id="WWbijRxvFpkm4Z4hjYA9-24" value="" style="curved=1;endArrow=classic;html=1;rounded=0;strokeWidth=6;fontColor=#FF33FF;strokeColor=#000000;" parent="1" edge="1">
          <mxGeometry width="50" height="50" relative="1" as="geometry">
            <mxPoint x="134" y="619" as="sourcePoint" />
            <mxPoint x="470" y="440" as="targetPoint" />
            <Array as="points">
              <mxPoint x="244" y="569" />
              <mxPoint x="354" y="509" />
            </Array>
          </mxGeometry>
        </mxCell>
        <mxCell id="wcHSf-dP6BTbZXNanSjt-2" value="&lt;font style=&quot;font-size: 30px; color: rgb(45, 118, 0);&quot;&gt;$$ \vec{n_1} $$&lt;/font&gt;" style="text;html=1;align=center;verticalAlign=middle;whiteSpace=wrap;rounded=0;strokeWidth=20;" parent="1" vertex="1">
          <mxGeometry x="245" y="310" width="60" height="30" as="geometry" />
        </mxCell>
        <mxCell id="wcHSf-dP6BTbZXNanSjt-4" value="&lt;font style=&quot;font-size: 30px; color: rgb(0, 29, 188);&quot;&gt;$$ \vec{n_2} $$&lt;/font&gt;" style="text;html=1;align=center;verticalAlign=middle;whiteSpace=wrap;rounded=0;strokeWidth=20;connectable=0;" parent="1" vertex="1">
          <mxGeometry x="517.65" y="275" width="60" height="30" as="geometry" />
        </mxCell>
        <mxCell id="wcHSf-dP6BTbZXNanSjt-28" value="&lt;font style=&quot;font-size: 30px; color: rgb(0, 0, 0);&quot;&gt;$$P_P(s)$$&lt;/font&gt;" style="text;html=1;align=center;verticalAlign=middle;whiteSpace=wrap;rounded=0;strokeWidth=20;strokeColor=none;connectable=0;" parent="1" vertex="1">
          <mxGeometry x="440" y="470" width="60" height="30" as="geometry" />
        </mxCell>
        <mxCell id="qAy7zvkjAzjR_tJNA8Cq-1" value="" style="verticalLabelPosition=bottom;verticalAlign=top;html=1;shape=mxgraph.basic.polygon;polyCoords=[[0.12,0.32],[0.3,0.36],[0.48,0.41],[0.52,0.57],[0.44,0.78],[0.25,0.76],[0.02,0.59],[0,0.41]];polyline=0;fillColor=light-dark(#B3B3B3,#EDEDED);strokeWidth=4;rotation=-10;gradientColor=none;fillStyle=solid;connectable=0;resizable=1;container=0;strokeColor=light-dark(#000000,#EDEDED);shadow=0;opacity=50;" parent="1" vertex="1">
          <mxGeometry x="399.99999999999994" y="40" width="165.3" height="220" as="geometry" />
        </mxCell>
        <mxCell id="qAy7zvkjAzjR_tJNA8Cq-2" value="" style="verticalLabelPosition=bottom;verticalAlign=top;html=1;shape=mxgraph.basic.polygon;polyCoords=[[0.06,0.27],[0.24,0.18],[0.6,0.45],[0.6,0.64],[0.44,0.78],[0.25,0.76],[0.02,0.59],[0,0.41]];polyline=0;fillColor=light-dark(#B3B3B3,#EDEDED);strokeWidth=4;rotation=-10;gradientColor=none;fillStyle=solid;connectable=0;resizable=1;container=0;strokeColor=light-dark(#000000,#EDEDED);shadow=0;opacity=50;" parent="1" vertex="1">
          <mxGeometry x="464.99566032982136" y="70.00087471551467" width="165.3" height="220" as="geometry" />
        </mxCell>
        <mxCell id="qAy7zvkjAzjR_tJNA8Cq-11" value="" style="verticalLabelPosition=bottom;verticalAlign=top;html=1;shape=mxgraph.basic.polygon;polyCoords=[[0.06,0.27],[0.33,0.32],[0.45,0.41],[0.51,0.59],[0.39,0.68],[0.15,0.68],[0.02,0.59],[0,0.41]];polyline=0;fillColor=light-dark(#B3B3B3,#EDEDED);strokeWidth=4;rotation=-10;gradientColor=none;fillStyle=solid;connectable=0;resizable=1;container=0;strokeColor=light-dark(#000000,#EDEDED);shadow=0;opacity=50;" parent="1" vertex="1">
          <mxGeometry x="534.9956603298214" y="110.00087471551467" width="165.3" height="220" as="geometry" />
        </mxCell>
        <mxCell id="qAy7zvkjAzjR_tJNA8Cq-14" value="" style="verticalLabelPosition=bottom;verticalAlign=top;html=1;shape=mxgraph.basic.polygon;polyCoords=[[0.12,0.32],[0.3,0.36],[0.48,0.41],[0.52,0.57],[0.44,0.78],[0.25,0.76],[0.02,0.59],[0,0.41]];polyline=0;fillColor=light-dark(#B3B3B3,#EDEDED);strokeWidth=4;rotation=-10;gradientColor=none;fillStyle=solid;connectable=0;resizable=1;container=0;strokeColor=light-dark(#000000,#EDEDED);shadow=0;opacity=50;" parent="1" vertex="1">
          <mxGeometry x="152.35000000000002" y="290" width="425.3" height="480" as="geometry" />
        </mxCell>
        <mxCell id="qAy7zvkjAzjR_tJNA8Cq-12" value="" style="verticalLabelPosition=bottom;verticalAlign=top;html=1;shape=mxgraph.basic.polygon;polyCoords=[[0.06,0.27],[0.24,0.18],[0.6,0.45],[0.6,0.64],[0.44,0.78],[0.25,0.76],[0.02,0.59],[0,0.41]];polyline=0;fillColor=light-dark(#B3B3B3,#EDEDED);strokeWidth=4;rotation=-10;gradientColor=none;fillStyle=solid;connectable=0;resizable=1;container=0;strokeColor=light-dark(#000000,#EDEDED);shadow=0;opacity=50;" parent="1" vertex="1">
          <mxGeometry x="20" y="380" width="390" height="450" as="geometry" />
        </mxCell>
        <mxCell id="xByIycl3dydqefeN32bK-1" value="&lt;span style=&quot;font-size: 30px;&quot;&gt;&lt;font style=&quot;color: rgb(0, 0, 0);&quot;&gt;$$ \mathbb{C}_{inside,s} $$&lt;/font&gt;&lt;/span&gt;" style="text;html=1;align=center;verticalAlign=middle;whiteSpace=wrap;rounded=0;strokeWidth=20;connectable=0;" parent="1" vertex="1">
          <mxGeometry x="550" y="430" width="60" height="30" as="geometry" />
        </mxCell>
      </root>
    </mxGraphModel>
  </diagram>
</mxfile>
